<svg width="12" height="13" viewBox="0 0 12 13" fill="none" xmlns="http://www.w3.org/2000/svg">
<path d="M8.02708 9.13958L8.63958 8.52708L6.43749 6.32499V3.58333H5.56249V6.67499L8.02708 9.13958ZM5.99999 12.0417C5.23194 12.0417 4.51016 11.8958 3.83466 11.6042C3.15877 11.3125 2.57291 10.9187 2.07708 10.4229C1.58124 9.92708 1.18749 9.34122 0.895828 8.66533C0.604162 7.98983 0.458328 7.26805 0.458328 6.49999C0.458328 5.73194 0.604162 5.00997 0.895828 4.33408C1.18749 3.65858 1.58124 3.07291 2.07708 2.57708C2.57291 2.08124 3.15877 1.68749 3.83466 1.39583C4.51016 1.10416 5.23194 0.958328 5.99999 0.958328C6.76805 0.958328 7.49002 1.10416 8.16591 1.39583C8.84141 1.68749 9.42708 2.08124 9.92291 2.57708C10.4187 3.07291 10.8125 3.65858 11.1042 4.33408C11.3958 5.00997 11.5417 5.73194 11.5417 6.49999C11.5417 7.26805 11.3958 7.98983 11.1042 8.66533C10.8125 9.34122 10.4187 9.92708 9.92291 10.4229C9.42708 10.9187 8.84141 11.3125 8.16591 11.6042C7.49002 11.8958 6.76805 12.0417 5.99999 12.0417ZM5.99999 11.1667C7.29305 11.1667 8.39419 10.7122 9.30341 9.80341C10.2122 8.89419 10.6667 7.79305 10.6667 6.49999C10.6667 5.20694 10.2122 4.1058 9.30341 3.19658C8.39419 2.28774 7.29305 1.83333 5.99999 1.83333C4.70694 1.83333 3.60599 2.28774 2.69716 3.19658C1.78794 4.1058 1.33333 5.20694 1.33333 6.49999C1.33333 7.79305 1.78794 8.89419 2.69716 9.80341C3.60599 10.7122 4.70694 11.1667 5.99999 11.1667Z" fill="#B1B3C5"/>
</svg>
